<?xml version="1.0" encoding="utf-8"?>
<!-- Generator: Adobe Illustrator 19.0.0, SVG Export Plug-In . SVG Version: 6.00 Build 0)  -->
<svg version="1.1" id="图层_1" xmlns="http://www.w3.org/2000/svg" xmlns:xlink="http://www.w3.org/1999/xlink" x="0px" y="0px"
	 viewBox="0 0 224 230" enable-background="new 0 0 224 230" xml:space="preserve">
<g>
	<g>
		<defs>
			<path id="SVGID_1_" d="M66.681-1198.206c-13.78,11.056-26.619,16.244-38.585,16.503c-12.163,0.263-23.449-6.616-36.896-15.108
				c-0.808-0.843-1.688-1.573-2.624-2.339c-12.246-9.617-30.108-7.269-39.881,5.326c-9.793,12.502-7.753,30.469,4.549,40.122
				c10.259,8.01,24.413,7.692,34.481,0.044c15.849-12.534,28.686-23.371,41.014-23.989c12.7-0.637,17.56,4.043,22.235,9.644
				c2.206,2.643,3.579,7.4,3.254,10.379c-0.325,2.979-0.471,5.734-4.401,13.242c-12.829,24.508-54.812,58.113-73.636,56.908
				c-11.169-1.946-22.96,3.078-29.305,13.461c-8.315,13.539-4.281,31.139,8.998,39.285c11.204,6.801,25.462,4.729,34.621-4.223
				c13.248-10.567,28.015-19.059,39.744-18.729c11.982,0.338,21.407,4.715,30.921,14.93c1.478,1.587,2.789,3.316,4.458,4.797
				c11.935,9.97,29.916,8.175,40.047-4.11c10.091-12.227,8.625-30.218-3.367-40.225c-10.007-8.4-24.147-8.47-34.478-1.152
				c-0.659,0.524-1.373,1.011-1.975,1.569c-13.541,10.378-25.382,21.05-35.473,20.473c-8.285-0.474-12.908-1.044-19.31-7.628
				c-3.266-3.359-5.202-7.578-4.358-11.945c0.25-0.629,0.726-2.223,0.726-2.223c14.45-33.172,52.738-62.414,76.507-64.651
				c1.11,0.009,2.108-0.056,3.143-0.177c8.631-0.894,16.759-5.68,21.639-13.686c8.167-13.297,4.424-30.506-8.377-38.819
				c-0.234-0.152-0.473-0.301-0.712-0.448C89.033-1207.466,75.859-1205.956,66.681-1198.206z"/>
		</defs>
		<use xlink:href="#SVGID_1_"  overflow="visible" fill-rule="evenodd" clip-rule="evenodd" fill="#4DB6AC"/>
		<clipPath id="SVGID_2_">
			<use xlink:href="#SVGID_1_"  overflow="visible"/>
		</clipPath>
		<g clip-path="url(#SVGID_2_)">
			<defs>
				<rect id="SVGID_3_" x="-109.828" y="-1307.355" width="609.268" height="357.238"/>
			</defs>
			<use xlink:href="#SVGID_3_"  overflow="visible" fill="#4DB6AC"/>
			<clipPath id="SVGID_4_">
				<use xlink:href="#SVGID_3_"  overflow="visible"/>
			</clipPath>
			
				<rect x="-81.427" y="-1228.459" transform="matrix(-0.8387 -0.5446 0.5446 -0.8387 659.2566 -2040.9662)" clip-path="url(#SVGID_4_)" fill="#4DB6AC" width="217.55" height="220.671"/>
		</g>
	</g>
	<g opacity="0.15">
		<defs>
			<path id="SVGID_5_" opacity="0.15" d="M-53.332-1190.498c-6.493,10.608-4.297,28.714,5.649,34.526
				c15.123,10.479,18.85,6.914,33.052,9.058c8.758,1.322,13.267,3.741,18.21,6.198c16.693,8.295,51.803,51.811,50.598,70.635
				c-1.074,11.948,3.495,27.957,13.878,34.302c14.622,8.518,32.143,3.642,40.289-9.637c7.144-12.138,4.596-26.344-3.288-34.467
				c-8.731-8.995-16.641-8.958-19.412-9.121c-8.248-0.488-15.201,3.902-27.97-5.063c-28.474-19.991-54.821-57.104-57.058-80.873
				c0.009-1.11-0.056-2.108-0.177-3.143c-0.894-8.631-5.628-17.247-13.634-22.127c-13.319-8.118-31.378-3.8-39.69,9.001"/>
		</defs>
		<use xlink:href="#SVGID_5_"  overflow="visible" fill-rule="evenodd" clip-rule="evenodd" fill="#27AC9E"/>
		<clipPath id="SVGID_6_">
			<use xlink:href="#SVGID_5_"  overflow="visible"/>
		</clipPath>
		
			<rect x="-20.799" y="-1226.734" transform="matrix(-0.5446 0.8387 -0.8387 -0.5446 -895.1132 -1749.8969)" opacity="0.15" clip-path="url(#SVGID_6_)" fill="#27AC9E" width="96.602" height="217.564"/>
		<rect x="-109.828" y="-1307.355" clip-path="url(#SVGID_6_)" fill="#27AC9E" width="609.268" height="357.238"/>
	</g>
</g>
<g>
	<defs>
		<circle id="SVGID_7_" cx="141.842" cy="-1176.276" r="28.789"/>
	</defs>
	<clipPath id="SVGID_8_">
		<use xlink:href="#SVGID_7_"  overflow="visible"/>
	</clipPath>
	<g clip-path="url(#SVGID_8_)">
		<defs>
			<rect id="SVGID_9_" x="-106.031" y="-1304.962" width="598.522" height="350.937"/>
		</defs>
		<clipPath id="SVGID_10_">
			<use xlink:href="#SVGID_9_"  overflow="visible"/>
		</clipPath>
	</g>
</g>
<g>
	<path fill="#4DB6AC" d="M195.893-1137.579l0.138,5.706h-25.137v-46.506h19.202v-6.901h-19.202l19.171-19.203l52.837,0v19.202H222.8
		v6.901h19.502l0.102,46.506l-24.165,0v-5.706H195.893z M188.526-1159.976h-4.801v9.901h4.801V-1159.976z M207.129-1185.179h-4.801
		v6.901h4.801V-1185.179z M207.129-1159.976h-4.801v9.901h4.801V-1159.976z M225.731-1150.075v-9.901h-4.801v9.901H225.731z
		 M207.739-1127.964 M171.713-1074.316v-18.703l24.303-1.767v-10.014h-23.103v-18.556h23.103v-7.363h22.203v7.363h22.803v18.556
		h-22.803v8.542l23.403-1.473v18.703L171.713-1074.316z"/>
	<g>
		<defs>
			<path id="SVGID_11_" d="M247.83-1093.525l18.096-8.826l0.087-0.769l1.745-99.984H308.6v18.652h-37.304l-0.301,10.229h30.385
				v79.422h1.504l12.034-12.034l-2.006,21.764l-9.941,10.877h-17.234v-79.271h-15.945l-0.602,50.24l12.334-6.318v21.36
				l-33.694,14.891V-1093.525z M251.487-1098.284l1.759-86.169h-4.513v-18.652h16.352l-1.729,99.032L251.487-1098.284z"/>
		</defs>
		<use xlink:href="#SVGID_11_"  overflow="visible" fill-rule="evenodd" clip-rule="evenodd" fill="#4DB6AC"/>
		<clipPath id="SVGID_12_">
			<use xlink:href="#SVGID_11_"  overflow="visible"/>
		</clipPath>
		<rect x="245.156" y="-1205.779" clip-path="url(#SVGID_12_)" fill="#4DB6AC" width="72.435" height="135.161"/>
		
			<circle clip-path="url(#SVGID_12_)" fill-rule="evenodd" clip-rule="evenodd" fill="#4DB6AC" cx="277.768" cy="-1133.779" r="6.969"/>
	</g>
	<circle fill-rule="evenodd" clip-rule="evenodd" fill="#F8E71B" cx="277.755" cy="-1135.834" r="7.734"/>
	<g>
		<defs>
			<path id="SVGID_13_" d="M446.384-1124.879v-19.12h-1.722H342.557h-1.476v18.978h-8.556v-24.234h9.212
				c-1.215-16.817-2.126-29.43-2.734-37.839l10.528-12.185c7.399-1.117,12.036-2.884,19.84-5.246l4.677,11.196
				c-4.535,1.559-11.904,3.118-21.966,4.818l0.567,6.377h19.982v9.92h-19.273l0.425,6.236h19.273v10.062h-18.423l0.567,6.661h76.81
				l0.425-6.661h-18.14v-10.062h18.848l0.425-6.236h-18.99v-9.92h19.699l0.567-7.086h-21.683v-11.621h24.425l10.311,10.959
				l-2.567,40.626h9.637v24.375H446.384z M443.924-1124.879h-3.128v-13.605h-94.1v13.463h-3.155v-16.518h100.382V-1124.879z"/>
		</defs>
		<clipPath id="SVGID_14_">
			<use xlink:href="#SVGID_13_"  overflow="visible"/>
		</clipPath>
		<rect x="330.065" y="-1206.984" clip-path="url(#SVGID_14_)" fill="#4DB6AC" width="127.364" height="84.565"/>
	</g>
	<g>
		<defs>
			<path id="SVGID_15_" d="M432.669-1122.348v-10.042h-79.503v10.042H432.669z M447.88-1099.712l-2.797,3.035h-43.025v9.495
				l-13.463,12.471h-16.297l-3.259-11.904c4.677,0.283,9.778,0.425,15.305,0.425c2.834,0,4.393-1.842,4.393-5.385v-5.102H331.2
				v-3.035H447.88z M450.147-1102.173l5.905-6.409h-53.994v-1.701c9.626-3.128,18.435-6.359,26.426-9.605h-24.51
				c-4.444,1.349-9.508,2.897-15.238,4.645v6.661H331.2v6.409H450.147z"/>
		</defs>
		<use xlink:href="#SVGID_15_"  overflow="visible" fill-rule="evenodd" clip-rule="evenodd" fill="#4DB6AC"/>
		<clipPath id="SVGID_16_">
			<use xlink:href="#SVGID_15_"  overflow="visible"/>
		</clipPath>
		<rect x="328.74" y="-1134.85" clip-path="url(#SVGID_16_)" fill="#4DB6AC" width="129.773" height="62.599"/>
	</g>
	<g>
		<defs>
			<path id="SVGID_17_" d="M393.788-1182.637l-5.915,5.915l5.915,5.915l5.915-5.915L393.788-1182.637z M404.225-1157.602
				l-10.508-10.508l-10.508,10.508l-6.889-6.889l6.151-6.151l-6.151-6.151l6.151-6.151l-6.151-6.151l6.889-6.889l10.508,10.508
				l10.508-10.508l6.889,6.889l-6.151,6.151l6.151,6.151l-6.151,6.151l6.151,6.151L404.225-1157.602z"/>
		</defs>
		<clipPath id="SVGID_18_">
			<use xlink:href="#SVGID_17_"  overflow="visible"/>
		</clipPath>
		<rect x="373.859" y="-1198.444" clip-path="url(#SVGID_18_)" fill="#F8E71B" width="39.715" height="43.302"/>
	</g>
	<g>
		<defs>
			<polygon id="SVGID_19_" points="389.851,-1196.158 388.129,-1194.436 393.696,-1188.869 399.263,-1194.436 397.541,-1196.158 
				393.696,-1192.313 			"/>
		</defs>
		<use xlink:href="#SVGID_19_"  overflow="visible" fill-rule="evenodd" clip-rule="evenodd" fill="#F8E71B"/>
		<clipPath id="SVGID_20_">
			<use xlink:href="#SVGID_19_"  overflow="visible"/>
		</clipPath>
		<rect x="385.669" y="-1198.619" clip-path="url(#SVGID_20_)" fill="#F8E71B" width="16.055" height="12.21"/>
	</g>
	<g>
		<defs>
			<polygon id="SVGID_21_" points="397.541,-1157.376 399.263,-1159.099 393.696,-1164.666 388.129,-1159.099 389.851,-1157.376 
				393.696,-1161.221 			"/>
		</defs>
		<use xlink:href="#SVGID_21_"  overflow="visible" fill-rule="evenodd" clip-rule="evenodd" fill="#F8E71B"/>
		<clipPath id="SVGID_22_">
			<use xlink:href="#SVGID_21_"  overflow="visible"/>
		</clipPath>
		<rect x="385.669" y="-1167.126" clip-path="url(#SVGID_22_)" fill="#F8E71B" width="16.055" height="12.21"/>
	</g>
	<g>
		<defs>
			<path id="SVGID_23_" d="M336.254-1032.58l23.749-29.857h5.268l-11.306,15.587l11.526,14.27h-10.208l-6.696-8.123l-6.806,8.123
				H336.254z M339.298-1062.437h2.483l6.915,8.891l6.806-8.891h2.008l-9.106,11.447L339.298-1062.437z M336.805-1062.437
				l10.352,13.015l-13.397,16.842h-2.188l11.965-14.599l-11.855-15.258H336.805z"/>
		</defs>
		<use xlink:href="#SVGID_23_"  overflow="visible" fill-rule="evenodd" clip-rule="evenodd" fill="#4DB6AC"/>
		<clipPath id="SVGID_24_">
			<use xlink:href="#SVGID_23_"  overflow="visible"/>
		</clipPath>
		<rect x="350.598" y="-1063.413" clip-path="url(#SVGID_24_)" fill="#4DB6AC" width="35.87" height="31.808"/>
	</g>
	<g>
		<defs>
			<path id="SVGID_25_" d="M174.53-1032.58h-5.65l17.124-21.954h-13.721v-7.903h25.157L174.53-1032.58z M200.933-1038.644h-19.289
				l18.257-23.793h2.24l-16.904,21.954h15.697V-1038.644z M200.933-1036.693v4.113H176.99l3.156-4.113H200.933z"/>
		</defs>
		<use xlink:href="#SVGID_25_"  overflow="visible" fill-rule="evenodd" clip-rule="evenodd" fill="#4DB6AC"/>
		<clipPath id="SVGID_26_">
			<use xlink:href="#SVGID_25_"  overflow="visible"/>
		</clipPath>
		<rect x="167.905" y="-1063.413" clip-path="url(#SVGID_26_)" fill="#4DB6AC" width="35.211" height="31.808"/>
	</g>
	<g>
		<defs>
			<path id="SVGID_27_" d="M216.407-1032.58h-7.542v-36.004h7.542V-1032.58z M230.458-1032.58h-2.053v-21.734h-10.046v-1.893h12.099
				V-1032.58z M232.409-1032.58v-25.578h-1.366h-12.684v-4.059h18.388v29.637H232.409z"/>
		</defs>
		<use xlink:href="#SVGID_27_"  overflow="visible" fill-rule="evenodd" clip-rule="evenodd" fill="#4DB6AC"/>
		<clipPath id="SVGID_28_">
			<use xlink:href="#SVGID_27_"  overflow="visible"/>
		</clipPath>
		<rect x="207.89" y="-1069.56" clip-path="url(#SVGID_28_)" fill="#4DB6AC" width="29.832" height="37.955"/>
	</g>
	<g>
		<defs>
			<path id="SVGID_29_" d="M268.071-1051.804v-2.964h-12.184v2.964H268.071z M253.886-1046.074h22.528v1.844h-20.527v3.732h20.527
				v2.034h-22.528V-1046.074z M251.934-1047.05v8.879v1.659h24.48v3.917h-28.979v-29.857h28.979v14.426h-24.48V-1047.05z"/>
		</defs>
		<use xlink:href="#SVGID_29_"  overflow="visible" fill-rule="evenodd" clip-rule="evenodd" fill="#4DB6AC"/>
		<clipPath id="SVGID_30_">
			<use xlink:href="#SVGID_29_"  overflow="visible"/>
		</clipPath>
		<rect x="246.459" y="-1063.427" clip-path="url(#SVGID_30_)" fill="#4DB6AC" width="30.93" height="31.808"/>
	</g>
	<g>
		<defs>
			<path id="SVGID_31_" d="M446.798-1051.804v-2.964h-12.184v2.964H446.798z M432.613-1046.074h22.528v1.844h-20.527v3.732h20.527
				v2.034h-22.528V-1046.074z M430.661-1047.05v8.879v1.659h24.48v3.917h-28.979v-29.857h28.979v14.426h-24.48V-1047.05z"/>
		</defs>
		<use xlink:href="#SVGID_31_"  overflow="visible" fill-rule="evenodd" clip-rule="evenodd" fill="#4DB6AC"/>
		<clipPath id="SVGID_32_">
			<use xlink:href="#SVGID_31_"  overflow="visible"/>
		</clipPath>
		<rect x="425.186" y="-1063.427" clip-path="url(#SVGID_32_)" fill="#4DB6AC" width="30.93" height="31.808"/>
	</g>
	<g>
		<defs>
			<polygon id="SVGID_33_" points="291.311,-1032.595 287.049,-1032.595 287.049,-1062.451 314.491,-1062.451 314.491,-1032.595 
				310.24,-1032.595 310.24,-1056.222 308.289,-1056.222 308.289,-1032.595 306.368,-1032.595 306.368,-1054.548 295.172,-1054.548 
				295.172,-1032.595 293.263,-1032.595 293.263,-1056.222 310.24,-1056.222 310.24,-1058.173 291.311,-1058.173 291.311,-1056.417 
							"/>
		</defs>
		<use xlink:href="#SVGID_33_"  overflow="visible" fill-rule="evenodd" clip-rule="evenodd" fill="#4DB6AC"/>
		<clipPath id="SVGID_34_">
			<use xlink:href="#SVGID_33_"  overflow="visible"/>
		</clipPath>
		<rect x="286.073" y="-1063.427" clip-path="url(#SVGID_34_)" fill="#4DB6AC" width="29.393" height="31.808"/>
	</g>
	<g>
		<defs>
			<polygon id="SVGID_35_" points="403.947,-1062.451 408.209,-1062.451 408.209,-1032.595 380.767,-1032.595 380.767,-1062.451 
				385.018,-1062.451 385.018,-1038.825 386.97,-1038.825 386.97,-1062.451 388.89,-1062.451 388.89,-1040.498 400.086,-1040.498 
				400.086,-1062.451 401.996,-1062.451 401.996,-1038.825 385.018,-1038.825 385.018,-1036.873 403.947,-1036.873 
				403.947,-1038.629 			"/>
		</defs>
		<use xlink:href="#SVGID_35_"  overflow="visible" fill-rule="evenodd" clip-rule="evenodd" fill="#4DB6AC"/>
		<clipPath id="SVGID_36_">
			<use xlink:href="#SVGID_35_"  overflow="visible"/>
		</clipPath>
		<rect x="379.791" y="-1063.427" clip-path="url(#SVGID_36_)" fill="#4DB6AC" width="29.393" height="31.808"/>
	</g>
</g>
<g display="none">
	<defs>
		<circle id="SVGID_37_" cx="680.234" cy="120.902" r="28.789"/>
	</defs>
	<use xlink:href="#SVGID_37_"  display="inline" overflow="visible" fill-rule="evenodd" clip-rule="evenodd" fill="#F29600"/>
	<clipPath id="SVGID_38_" display="inline">
		<use xlink:href="#SVGID_37_"  overflow="visible"/>
	</clipPath>
</g>
<g>
	<g>
		<defs>
			<path id="SVGID_39_" d="M150.9,38.47c-13.78,11.056-26.619,16.244-38.585,16.503c-12.163,0.263-23.449-6.616-36.896-15.108
				c-0.808-0.843-1.688-1.573-2.624-2.339c-12.246-9.617-30.108-7.269-39.881,5.326c-9.793,12.502-7.753,30.469,4.549,40.122
				c10.259,8.01,24.413,7.692,34.481,0.044c15.849-12.534,28.686-23.371,41.014-23.989c12.7-0.637,17.56,4.043,22.235,9.644
				c2.206,2.643,3.579,7.4,3.254,10.379c-0.325,2.979-0.471,5.734-4.401,13.242c-12.829,24.508-54.812,58.113-73.636,56.908
				c-11.169-1.946-22.96,3.078-29.305,13.461c-8.315,13.539-4.281,31.139,8.998,39.285c11.204,6.801,25.462,4.729,34.621-4.223
				c13.248-10.567,28.015-19.059,39.744-18.729c11.982,0.338,21.407,4.715,30.921,14.93c1.478,1.587,2.789,3.316,4.458,4.797
				c11.935,9.97,29.916,8.175,40.047-4.11c10.091-12.227,8.625-30.218-3.367-40.225c-10.007-8.4-24.147-8.47-34.478-1.152
				c-0.659,0.524-1.373,1.011-1.975,1.569c-13.541,10.378-25.382,21.05-35.473,20.473c-8.285-0.474-12.908-1.044-19.31-7.628
				c-3.266-3.359-5.202-7.578-4.358-11.945c0.25-0.629,0.726-2.223,0.726-2.223c14.45-33.172,52.738-62.413,76.507-64.651
				c1.11,0.009,2.108-0.056,3.143-0.177c8.631-0.895,16.759-5.68,21.639-13.686c8.167-13.297,4.424-30.506-8.377-38.819
				c-0.234-0.152-0.473-0.301-0.712-0.447C173.251,29.209,160.078,30.719,150.9,38.47z"/>
		</defs>
		<use xlink:href="#SVGID_39_"  overflow="visible" fill-rule="evenodd" clip-rule="evenodd" fill="#4DB6AC"/>
		<clipPath id="SVGID_40_">
			<use xlink:href="#SVGID_39_"  overflow="visible"/>
		</clipPath>
		<g clip-path="url(#SVGID_40_)">
			<defs>
				<rect id="SVGID_41_" x="-25.61" y="-70.68" width="609.268" height="357.238"/>
			</defs>
			<use xlink:href="#SVGID_41_"  overflow="visible" fill="#4DB6AC"/>
			<clipPath id="SVGID_42_">
				<use xlink:href="#SVGID_41_"  overflow="visible"/>
			</clipPath>
			
				<rect x="2.791" y="8.217" transform="matrix(-0.8387 -0.5446 0.5446 -0.8387 140.5652 278.741)" clip-path="url(#SVGID_42_)" fill="#4DB6AC" width="217.55" height="220.671"/>
		</g>
	</g>
	<g opacity="0.15">
		<defs>
			<path id="SVGID_43_" opacity="0.15" d="M30.887,46.177c-6.493,10.608-4.297,28.714,5.649,34.526
				c15.123,10.479,18.85,6.915,33.052,9.058c8.758,1.322,13.267,3.741,18.21,6.198c16.693,8.295,51.803,51.811,50.598,70.635
				c-1.074,11.948,3.495,27.957,13.878,34.302c14.622,8.518,32.143,3.642,40.289-9.637c7.144-12.138,4.596-26.344-3.288-34.467
				c-8.731-8.995-16.641-8.958-19.412-9.121c-8.248-0.488-15.201,3.902-27.97-5.063c-28.474-19.991-54.821-57.104-57.058-80.873
				c0.009-1.11-0.056-2.108-0.177-3.143c-0.895-8.631-5.628-17.247-13.634-22.127c-13.319-8.118-31.378-3.8-39.69,9.001"/>
		</defs>
		<use xlink:href="#SVGID_43_"  overflow="visible" fill-rule="evenodd" clip-rule="evenodd" fill="#4DB6AC"/>
		<clipPath id="SVGID_44_">
			<use xlink:href="#SVGID_43_"  overflow="visible"/>
		</clipPath>
		<g clip-path="url(#SVGID_44_)">
			<defs>
				<rect id="SVGID_45_" x="-25.61" y="-70.68" width="609.268" height="357.238"/>
			</defs>
			<use xlink:href="#SVGID_45_"  overflow="visible" fill="#4DB6AC"/>
			<clipPath id="SVGID_46_">
				<use xlink:href="#SVGID_45_"  overflow="visible"/>
			</clipPath>
			
				<rect x="63.419" y="9.942" transform="matrix(-0.5446 0.8387 -0.8387 -0.5446 272.1373 89.6884)" opacity="0.15" clip-path="url(#SVGID_46_)" fill="#4DB6AC" width="96.602" height="217.564"/>
		</g>
	</g>
</g>
<g>
	<path fill="#4DB6AC" d="M-406.951-990.266l0.084,3.447h-15.183v-28.09h11.598v-4.168h-11.598l11.58-11.598h31.914v11.598h-12.142
		v4.168h11.78l0.061,28.09l-14.596,0v-3.447H-406.951z M-411.401-1003.794h-2.9v5.98h2.9V-1003.794z M-400.165-1019.017h-2.9v4.168
		h2.9V-1019.017z M-400.165-1003.794h-2.9v5.98h2.9V-1003.794z M-388.929-997.814v-5.98h-2.9v5.98H-388.929z M-399.796-984.458
		 M-421.556-952.055v-11.297l14.679-1.067v-6.049h-13.954v-11.208h13.954v-4.448h13.411v4.448h13.773v11.208h-13.773v5.159
		l14.135-0.889v11.297L-421.556-952.055z"/>
	<g>
		<defs>
			<path id="SVGID_47_" d="M-375.581-963.657l10.93-5.331l0.053-0.465l1.054-60.391h24.668v11.266h-22.532l-0.182,6.178h18.353
				v47.971h0.909l7.268-7.268l-1.212,13.146l-6.005,6.57h-10.41v-47.88h-9.631l-0.363,30.345l7.45-3.816v12.901l-20.351,8.995
				V-963.657z M-373.372-966.532l1.062-52.046h-2.726v-11.266h9.877l-1.044,59.816L-373.372-966.532z"/>
		</defs>
		<clipPath id="SVGID_48_">
			<use xlink:href="#SVGID_47_"  overflow="visible"/>
		</clipPath>
		<rect x="-377.196" y="-1031.459" clip-path="url(#SVGID_48_)" fill="#4DB6AC" width="43.751" height="81.637"/>
		
			<circle clip-path="url(#SVGID_48_)" fill-rule="evenodd" clip-rule="evenodd" fill="#DDE236" cx="-357.498" cy="-987.971" r="4.209"/>
	</g>
	<circle fill-rule="evenodd" clip-rule="evenodd" fill="#F8E71B" cx="-357.506" cy="-989.212" r="4.671"/>
	<g>
		<defs>
			<path id="SVGID_49_" d="M-255.654-982.595v-11.549h-1.04h-61.672h-0.892v11.463h-5.168v-14.637h5.564
				c-0.734-10.158-1.284-17.776-1.651-22.855l6.359-7.359c4.469-0.675,7.27-1.742,11.984-3.169l2.825,6.762
				c-2.739,0.942-7.19,1.883-13.268,2.91l0.342,3.852h12.069v5.992h-11.641l0.257,3.766h11.641v6.077h-11.128l0.342,4.023h46.394
				l0.257-4.023h-10.956v-6.077h11.384l0.257-3.766h-11.47v-5.992h11.898l0.342-4.28h-13.096v-7.019h14.753l6.228,6.619
				l-1.551,24.538h5.821v14.723H-255.654z M-257.14-982.595h-1.889v-8.217h-56.837v8.132h-1.906v-9.977h60.631V-982.595z"/>
		</defs>
		<clipPath id="SVGID_50_">
			<use xlink:href="#SVGID_49_"  overflow="visible"/>
		</clipPath>
		<rect x="-325.911" y="-1032.187" clip-path="url(#SVGID_50_)" fill="#4DB6AC" width="76.928" height="51.078"/>
	</g>
	<g>
		<defs>
			<path id="SVGID_51_" d="M-263.938-981.066v-6.065h-48.02v6.065H-263.938z M-254.75-967.394l-1.689,1.833h-25.987v5.735
				l-8.132,7.533h-9.844l-1.969-7.19c2.825,0.171,5.906,0.257,9.244,0.257c1.712,0,2.654-1.113,2.654-3.253v-3.081h-34.752v-1.833
				H-254.75z M-253.381-968.88l3.567-3.871h-32.613v-1.027c5.814-1.89,11.135-3.841,15.962-5.802h-14.804
				c-2.684,0.815-5.743,1.75-9.204,2.806v4.023h-34.752v3.871H-253.381z"/>
		</defs>
		<use xlink:href="#SVGID_51_"  overflow="visible" fill-rule="evenodd" clip-rule="evenodd" fill="#4DB6AC"/>
		<clipPath id="SVGID_52_">
			<use xlink:href="#SVGID_51_"  overflow="visible"/>
		</clipPath>
		<rect x="-326.711" y="-988.618" clip-path="url(#SVGID_52_)" fill="#4DB6AC" width="78.383" height="37.81"/>
	</g>
	<g>
		<defs>
			<path id="SVGID_53_" d="M-287.422-1017.481l-3.573,3.573l3.573,3.573l3.573-3.573L-287.422-1017.481z M-281.118-1002.36
				l-6.347-6.347l-6.347,6.347l-4.161-4.161l3.715-3.715l-3.715-3.715l3.715-3.715l-3.715-3.715l4.161-4.161l6.347,6.347
				l6.347-6.347l4.161,4.161l-3.715,3.715l3.715,3.715l-3.715,3.715l3.715,3.715L-281.118-1002.36z"/>
		</defs>
		<clipPath id="SVGID_54_">
			<use xlink:href="#SVGID_53_"  overflow="visible"/>
		</clipPath>
		<rect x="-299.459" y="-1027.029" clip-path="url(#SVGID_54_)" fill="#F8E71B" width="23.988" height="26.155"/>
	</g>
	<g>
		<defs>
			<polygon id="SVGID_55_" points="-289.8,-1025.648 -290.84,-1024.608 -287.477,-1021.245 -284.115,-1024.608 -285.155,-1025.648 
				-287.477,-1023.326 			"/>
		</defs>
		<use xlink:href="#SVGID_55_"  overflow="visible" fill-rule="evenodd" clip-rule="evenodd" fill="#F8E71B"/>
		<clipPath id="SVGID_56_">
			<use xlink:href="#SVGID_55_"  overflow="visible"/>
		</clipPath>
		<rect x="-292.326" y="-1027.134" clip-path="url(#SVGID_56_)" fill="#F8E71B" width="9.697" height="7.375"/>
	</g>
	<g>
		<defs>
			<polygon id="SVGID_57_" points="-285.155,-1002.224 -284.115,-1003.264 -287.477,-1006.626 -290.84,-1003.264 -289.8,-1002.224 
				-287.477,-1004.546 			"/>
		</defs>
		<use xlink:href="#SVGID_57_"  overflow="visible" fill-rule="evenodd" clip-rule="evenodd" fill="#F8E71B"/>
		<clipPath id="SVGID_58_">
			<use xlink:href="#SVGID_57_"  overflow="visible"/>
		</clipPath>
		<rect x="-292.326" y="-1008.113" clip-path="url(#SVGID_58_)" fill="#F8E71B" width="9.697" height="7.375"/>
	</g>
	<g>
		<defs>
			<path id="SVGID_59_" d="M-322.173-926.846l14.345-18.034h3.182l-6.829,9.415l6.961,8.619h-6.166l-4.044-4.906l-4.111,4.906
				H-322.173z M-320.334-944.88h1.5l4.177,5.37l4.111-5.37h1.213l-5.5,6.914L-320.334-944.88z M-321.84-944.88l6.253,7.861
				l-8.092,10.173H-325l7.227-8.818l-7.16-9.216H-321.84z"/>
		</defs>
		<use xlink:href="#SVGID_59_"  overflow="visible" fill-rule="evenodd" clip-rule="evenodd" fill="#4DB6AC"/>
		<clipPath id="SVGID_60_">
			<use xlink:href="#SVGID_59_"  overflow="visible"/>
		</clipPath>
		<rect x="-313.509" y="-945.469" clip-path="url(#SVGID_60_)" fill="#4DB6AC" width="21.665" height="19.212"/>
	</g>
	<g>
		<defs>
			<path id="SVGID_61_" d="M-419.854-926.846h-3.413l10.343-13.26h-8.288v-4.774h15.195L-419.854-926.846z M-403.907-930.509
				h-11.651l11.027-14.371h1.353l-10.21,13.26h9.481V-930.509z M-403.907-929.33v2.484h-14.461l1.906-2.484H-403.907z"/>
		</defs>
		<use xlink:href="#SVGID_61_"  overflow="visible" fill-rule="evenodd" clip-rule="evenodd" fill="#4DB6AC"/>
		<clipPath id="SVGID_62_">
			<use xlink:href="#SVGID_61_"  overflow="visible"/>
		</clipPath>
		<rect x="-423.856" y="-945.469" clip-path="url(#SVGID_62_)" fill="#4DB6AC" width="21.268" height="19.212"/>
	</g>
	<g>
		<defs>
			<path id="SVGID_63_" d="M-394.56-926.846h-4.555v-21.747h4.555V-926.846z M-386.074-926.846h-1.24v-13.127h-6.068v-1.143h7.308
				V-926.846z M-384.895-926.846v-15.449h-0.825h-7.661v-2.452h11.106v17.901H-384.895z"/>
		</defs>
		<use xlink:href="#SVGID_63_"  overflow="visible" fill-rule="evenodd" clip-rule="evenodd" fill="#4DB6AC"/>
		<clipPath id="SVGID_64_">
			<use xlink:href="#SVGID_63_"  overflow="visible"/>
		</clipPath>
		<rect x="-399.705" y="-949.182" clip-path="url(#SVGID_64_)" fill="#4DB6AC" width="18.019" height="22.925"/>
	</g>
	<g>
		<defs>
			<path id="SVGID_65_" d="M-363.355-938.458v-1.79h-7.359v1.79H-363.355z M-371.923-934.997h13.607v1.114h-12.398v2.254h12.398
				v1.229h-13.607V-934.997z M-373.102-935.586v5.363v1.002h14.786v2.366h-17.503v-18.034h17.503v8.713h-14.786V-935.586z"/>
		</defs>
		<use xlink:href="#SVGID_65_"  overflow="visible" fill-rule="evenodd" clip-rule="evenodd" fill="#4DB6AC"/>
		<clipPath id="SVGID_66_">
			<use xlink:href="#SVGID_65_"  overflow="visible"/>
		</clipPath>
		<rect x="-376.409" y="-945.478" clip-path="url(#SVGID_66_)" fill="#4DB6AC" width="18.682" height="19.212"/>
	</g>
	<g>
		<defs>
			<path id="SVGID_67_" d="M-255.403-938.458v-1.79h-7.359v1.79H-255.403z M-263.972-934.997h13.607v1.114h-12.398v2.254h12.398
				v1.229h-13.607V-934.997z M-265.15-935.586v5.363v1.002h14.786v2.366h-17.503v-18.034h17.503v8.713h-14.786V-935.586z"/>
		</defs>
		<use xlink:href="#SVGID_67_"  overflow="visible" fill-rule="evenodd" clip-rule="evenodd" fill="#4DB6AC"/>
		<clipPath id="SVGID_68_">
			<use xlink:href="#SVGID_67_"  overflow="visible"/>
		</clipPath>
		<rect x="-268.457" y="-945.478" clip-path="url(#SVGID_68_)" fill="#4DB6AC" width="18.682" height="19.212"/>
	</g>
	<g>
		<defs>
			<polygon id="SVGID_69_" points="-349.318,-926.855 -351.893,-926.855 -351.893,-944.889 -335.318,-944.889 -335.318,-926.855 
				-337.885,-926.855 -337.885,-941.126 -339.064,-941.126 -339.064,-926.855 -340.224,-926.855 -340.224,-940.115 
				-346.986,-940.115 -346.986,-926.855 -348.14,-926.855 -348.14,-941.126 -337.885,-941.126 -337.885,-942.305 -349.318,-942.305 
				-349.318,-941.244 			"/>
		</defs>
		<use xlink:href="#SVGID_69_"  overflow="visible" fill-rule="evenodd" clip-rule="evenodd" fill="#4DB6AC"/>
		<clipPath id="SVGID_70_">
			<use xlink:href="#SVGID_69_"  overflow="visible"/>
		</clipPath>
		<rect x="-352.482" y="-945.478" clip-path="url(#SVGID_70_)" fill="#4DB6AC" width="17.754" height="19.212"/>
	</g>
	<g>
		<defs>
			<polygon id="SVGID_71_" points="-281.286,-944.889 -278.712,-944.889 -278.712,-926.855 -295.287,-926.855 -295.287,-944.889 
				-292.719,-944.889 -292.719,-930.618 -291.54,-930.618 -291.54,-944.889 -290.38,-944.889 -290.38,-931.629 -283.618,-931.629 
				-283.618,-944.889 -282.465,-944.889 -282.465,-930.618 -292.719,-930.618 -292.719,-929.439 -281.286,-929.439 -281.286,-930.5 
							"/>
		</defs>
		<use xlink:href="#SVGID_71_"  overflow="visible" fill-rule="evenodd" clip-rule="evenodd" fill="#4DB6AC"/>
		<clipPath id="SVGID_72_">
			<use xlink:href="#SVGID_71_"  overflow="visible"/>
		</clipPath>
		<rect x="-295.876" y="-945.478" clip-path="url(#SVGID_72_)" fill="#4DB6AC" width="17.754" height="19.212"/>
	</g>
</g>
<g>
	<g>
		<defs>
			<path id="SVGID_73_" d="M725.73-1201.74c-13.78,11.056-26.619,16.244-38.585,16.503c-12.163,0.263-23.449-6.616-36.896-15.109
				c-0.808-0.843-1.688-1.573-2.624-2.339c-12.246-9.617-30.108-7.269-39.881,5.326c-9.793,12.502-7.753,30.469,4.549,40.122
				c10.259,8.01,24.413,7.692,34.481,0.044c15.849-12.534,28.686-23.371,41.014-23.989c12.7-0.637,17.56,4.043,22.235,9.644
				c2.206,2.643,3.579,7.4,3.254,10.379c-0.325,2.979-0.471,5.734-4.401,13.242c-12.829,24.508-54.812,58.113-73.636,56.908
				c-11.169-1.947-22.96,3.078-29.305,13.461c-8.315,13.539-4.281,31.139,8.998,39.285c11.204,6.801,25.462,4.729,34.621-4.223
				c13.248-10.567,28.015-19.059,39.744-18.729c11.982,0.338,21.407,4.715,30.921,14.93c1.478,1.587,2.789,3.316,4.458,4.797
				c11.935,9.97,29.916,8.176,40.047-4.11c10.091-12.227,8.625-30.218-3.367-40.225c-10.007-8.4-24.147-8.47-34.478-1.152
				c-0.659,0.524-1.373,1.011-1.975,1.569c-13.541,10.378-25.382,21.05-35.473,20.473c-8.285-0.474-12.908-1.044-19.31-7.628
				c-3.266-3.359-5.202-7.578-4.358-11.945c0.25-0.629,0.726-2.223,0.726-2.223c14.45-33.172,52.738-62.413,76.507-64.651
				c1.11,0.009,2.108-0.056,3.143-0.177c8.631-0.895,16.759-5.68,21.639-13.686c8.167-13.297,4.424-30.506-8.377-38.818
				c-0.234-0.152-0.473-0.301-0.712-0.448C748.081-1211,734.907-1209.49,725.73-1201.74z"/>
		</defs>
		<clipPath id="SVGID_74_">
			<use xlink:href="#SVGID_73_"  overflow="visible"/>
		</clipPath>
		<g clip-path="url(#SVGID_74_)">
			<defs>
				<rect id="SVGID_75_" x="549.22" y="-1310.889" width="609.268" height="357.238"/>
			</defs>
			<clipPath id="SVGID_76_">
				<use xlink:href="#SVGID_75_"  overflow="visible"/>
			</clipPath>
			
				<rect x="577.621" y="-1231.993" transform="matrix(-0.8387 -0.5446 0.5446 -0.8387 1872.9541 -1688.5203)" clip-path="url(#SVGID_76_)" fill="#FFFFFF" width="217.55" height="220.671"/>
		</g>
	</g>
	<g>
		<defs>
			<path id="SVGID_77_" d="M605.717-1194.032c-6.493,10.608-4.297,28.714,5.649,34.526c15.123,10.479,18.85,6.915,33.052,9.058
				c8.758,1.322,13.267,3.741,18.21,6.198c16.693,8.295,51.803,51.811,50.598,70.635c-1.074,11.948,3.495,27.957,13.878,34.302
				c14.622,8.518,32.143,3.642,40.289-9.637c7.144-12.138,4.596-26.344-3.288-34.467c-8.731-8.995-16.641-8.958-19.412-9.121
				c-8.248-0.488-15.201,3.901-27.97-5.063c-28.474-19.991-54.821-57.104-57.058-80.873c0.009-1.11-0.056-2.108-0.177-3.143
				c-0.895-8.631-5.628-17.247-13.634-22.127c-13.319-8.118-31.378-3.8-39.69,9.001"/>
		</defs>
		<clipPath id="SVGID_78_">
			<use xlink:href="#SVGID_77_"  overflow="visible"/>
		</clipPath>
		<g clip-path="url(#SVGID_78_)">
			<defs>
				<rect id="SVGID_79_" x="549.22" y="-1310.889" width="609.268" height="357.238"/>
			</defs>
			<clipPath id="SVGID_80_">
				<use xlink:href="#SVGID_79_"  overflow="visible"/>
			</clipPath>
			
				<rect x="638.249" y="-1230.268" transform="matrix(-0.5446 0.8387 -0.8387 -0.5446 119.9148 -2308.0798)" opacity="0.15" clip-path="url(#SVGID_80_)" fill="#FFFFFF" width="96.602" height="217.564"/>
		</g>
	</g>
	<rect x="549.367" y="-1311.009" fill="none" width="609.268" height="357.238"/>
	<g>
		<defs>
			<circle id="SVGID_81_" cx="800.89" cy="-1179.81" r="28.789"/>
		</defs>
		<clipPath id="SVGID_82_">
			<use xlink:href="#SVGID_81_"  overflow="visible"/>
		</clipPath>
		<g clip-path="url(#SVGID_82_)">
			<defs>
				<rect id="SVGID_83_" x="553.018" y="-1308.496" width="598.522" height="350.937"/>
			</defs>
			<clipPath id="SVGID_84_">
				<use xlink:href="#SVGID_83_"  overflow="visible"/>
			</clipPath>
		</g>
	</g>
	<path fill="#FFFFFF" d="M854.941-1141.113l0.138,5.706h-25.137v-46.506h19.202v-6.901h-19.202l19.171-19.202l52.837,0v19.202
		h-20.102v6.901h19.502l0.102,46.506l-24.165,0v-5.706H854.941z M847.575-1163.51h-4.801v9.901h4.801V-1163.51z M866.177-1188.713
		h-4.801v6.901h4.801V-1188.713z M866.177-1163.51h-4.801v9.901h4.801V-1163.51z M884.779-1153.609v-9.901h-4.801v9.901H884.779z
		 M866.787-1131.497 M830.762-1077.85v-18.703l24.303-1.767v-10.014h-23.103v-18.556h23.103v-7.363h22.203v7.363h22.803v18.556
		h-22.803v8.542l23.403-1.473v18.703L830.762-1077.85z"/>
	<g>
		<defs>
			<path id="SVGID_85_" d="M906.878-1097.059l18.096-8.826l0.087-0.769l1.745-99.984h40.841v18.652h-37.304l-0.301,10.229h30.385
				v79.422h1.504l12.034-12.034l-2.006,21.764l-9.941,10.877h-17.234V-1157H928.84l-0.602,50.24l12.334-6.318v21.36l-33.694,14.892
				V-1097.059z M910.535-1101.818l1.759-86.169h-4.513v-18.652h16.352l-1.729,99.032L910.535-1101.818z"/>
		</defs>
		<clipPath id="SVGID_86_">
			<use xlink:href="#SVGID_85_"  overflow="visible"/>
		</clipPath>
		<rect x="904.204" y="-1209.313" clip-path="url(#SVGID_86_)" fill="#FFFFFF" width="72.435" height="135.161"/>
		
			<circle clip-path="url(#SVGID_86_)" fill-rule="evenodd" clip-rule="evenodd" fill="#FFFFFF" cx="936.817" cy="-1137.313" r="6.969"/>
	</g>
	<circle fill-rule="evenodd" clip-rule="evenodd" fill="#FFFFFF" cx="936.804" cy="-1139.368" r="7.734"/>
	<g>
		<defs>
			<path id="SVGID_87_" d="M1105.433-1128.413v-19.12h-1.722h-102.105h-1.476v18.978h-8.556v-24.234h9.212
				c-1.215-16.817-2.126-29.43-2.734-37.839l10.528-12.185c7.399-1.117,12.036-2.884,19.84-5.246l4.677,11.196
				c-4.535,1.559-11.904,3.118-21.966,4.818l0.567,6.377h19.982v9.92h-19.273l0.425,6.235h19.273v10.062h-18.423l0.567,6.661h76.81
				l0.425-6.661h-18.14v-10.062h18.848l0.425-6.235h-18.99v-9.92h19.699l0.567-7.086h-21.683v-11.621h24.425l10.311,10.959
				l-2.567,40.626h9.637v24.375H1105.433z M1102.972-1128.413h-3.128v-13.605h-94.1v13.463h-3.155v-16.518h100.383V-1128.413z"/>
		</defs>
		<clipPath id="SVGID_88_">
			<use xlink:href="#SVGID_87_"  overflow="visible"/>
		</clipPath>
		<rect x="989.113" y="-1210.518" clip-path="url(#SVGID_88_)" fill="#FFFFFF" width="127.364" height="84.565"/>
	</g>
	<g>
		<defs>
			<path id="SVGID_89_" d="M1091.718-1125.881v-10.042h-79.503v10.042H1091.718z M1106.928-1103.246l-2.797,3.035h-43.025v9.495
				l-13.463,12.471h-16.297l-3.26-11.904c4.677,0.283,9.778,0.425,15.305,0.425c2.834,0,4.393-1.842,4.393-5.385v-5.102h-57.537
				v-3.035H1106.928z M1109.195-1105.707l5.905-6.409h-53.994v-1.701c9.626-3.129,18.435-6.359,26.427-9.605h-24.51
				c-4.444,1.349-9.508,2.897-15.238,4.645v6.661h-57.537v6.409H1109.195z"/>
		</defs>
		<use xlink:href="#SVGID_89_"  overflow="visible" fill-rule="evenodd" clip-rule="evenodd" fill="#FFFFFF"/>
		<clipPath id="SVGID_90_">
			<use xlink:href="#SVGID_89_"  overflow="visible"/>
		</clipPath>
		<rect x="987.788" y="-1138.384" clip-path="url(#SVGID_90_)" fill="#FFFFFF" width="129.773" height="62.599"/>
	</g>
	<g>
		<defs>
			<path id="SVGID_91_" d="M1052.836-1186.171l-5.915,5.915l5.915,5.915l5.915-5.915L1052.836-1186.171z M1063.273-1161.136
				l-10.508-10.508l-10.508,10.508l-6.889-6.889l6.151-6.151l-6.151-6.151l6.151-6.151l-6.151-6.151l6.889-6.889l10.508,10.508
				l10.508-10.508l6.889,6.889l-6.151,6.151l6.151,6.151l-6.151,6.151l6.151,6.151L1063.273-1161.136z"/>
		</defs>
		<clipPath id="SVGID_92_">
			<use xlink:href="#SVGID_91_"  overflow="visible"/>
		</clipPath>
		<rect x="1032.907" y="-1201.978" clip-path="url(#SVGID_92_)" fill="#FFFFFF" width="39.715" height="43.302"/>
	</g>
	<g>
		<defs>
			<polygon id="SVGID_93_" points="1048.9,-1199.692 1047.177,-1197.97 1052.745,-1192.403 1058.312,-1197.97 1056.589,-1199.692 
				1052.745,-1195.847 			"/>
		</defs>
		<clipPath id="SVGID_94_">
			<use xlink:href="#SVGID_93_"  overflow="visible"/>
		</clipPath>
		<rect x="1044.717" y="-1202.152" clip-path="url(#SVGID_94_)" fill="#FFFFFF" width="16.055" height="12.21"/>
	</g>
	<g>
		<defs>
			<polygon id="SVGID_95_" points="1056.589,-1160.91 1058.312,-1162.632 1052.745,-1168.2 1047.177,-1162.632 1048.9,-1160.91 
				1052.745,-1164.755 			"/>
		</defs>
		<clipPath id="SVGID_96_">
			<use xlink:href="#SVGID_95_"  overflow="visible"/>
		</clipPath>
		<rect x="1044.717" y="-1170.66" clip-path="url(#SVGID_96_)" fill="#FFFFFF" width="16.055" height="12.21"/>
	</g>
	<g>
		<defs>
			<path id="SVGID_97_" d="M995.302-1036.114l23.749-29.857h5.268l-11.306,15.587l11.526,14.27h-10.208l-6.696-8.123l-6.806,8.123
				H995.302z M998.346-1065.971h2.483l6.915,8.891l6.806-8.891h2.008l-9.106,11.447L998.346-1065.971z M995.853-1065.971
				l10.352,13.015l-13.397,16.842h-2.188l11.965-14.599l-11.855-15.258H995.853z"/>
		</defs>
		<use xlink:href="#SVGID_97_"  overflow="visible" fill-rule="evenodd" clip-rule="evenodd" fill="#FFFFFF"/>
		<clipPath id="SVGID_98_">
			<use xlink:href="#SVGID_97_"  overflow="visible"/>
		</clipPath>
		<rect x="1009.646" y="-1066.946" clip-path="url(#SVGID_98_)" fill="#FFFFFF" width="35.87" height="31.808"/>
	</g>
	<g>
		<defs>
			<path id="SVGID_99_" d="M833.579-1036.114h-5.65l17.124-21.953h-13.721v-7.903h25.157L833.579-1036.114z M859.981-1042.178
				h-19.289l18.257-23.793h2.24l-16.904,21.954h15.697V-1042.178z M859.981-1040.226v4.113h-23.942l3.156-4.113H859.981z"/>
		</defs>
		<use xlink:href="#SVGID_99_"  overflow="visible" fill-rule="evenodd" clip-rule="evenodd" fill="#FFFFFF"/>
		<clipPath id="SVGID_100_">
			<use xlink:href="#SVGID_99_"  overflow="visible"/>
		</clipPath>
		<rect x="826.953" y="-1066.946" clip-path="url(#SVGID_100_)" fill="#FFFFFF" width="35.211" height="31.808"/>
	</g>
	<g>
		<defs>
			<path id="SVGID_101_" d="M875.456-1036.114h-7.542v-36.004h7.542V-1036.114z M889.506-1036.114h-2.053v-21.734h-10.046v-1.893
				h12.099V-1036.114z M891.457-1036.114v-25.578h-1.366h-12.684v-4.059h18.388v29.637H891.457z"/>
		</defs>
		<use xlink:href="#SVGID_101_"  overflow="visible" fill-rule="evenodd" clip-rule="evenodd" fill="#FFFFFF"/>
		<clipPath id="SVGID_102_">
			<use xlink:href="#SVGID_101_"  overflow="visible"/>
		</clipPath>
		<rect x="866.938" y="-1073.093" clip-path="url(#SVGID_102_)" fill="#FFFFFF" width="29.832" height="37.955"/>
	</g>
	<g>
		<defs>
			<path id="SVGID_103_" d="M927.12-1055.338v-2.964h-12.184v2.964H927.12z M912.934-1049.608h22.528v1.844h-20.527v3.732h20.527
				v2.034h-22.528V-1049.608z M910.983-1050.584v8.879v1.659h24.479v3.918h-28.979v-29.857h28.979v14.426h-24.479V-1050.584z"/>
		</defs>
		<use xlink:href="#SVGID_103_"  overflow="visible" fill-rule="evenodd" clip-rule="evenodd" fill="#FFFFFF"/>
		<clipPath id="SVGID_104_">
			<use xlink:href="#SVGID_103_"  overflow="visible"/>
		</clipPath>
		<rect x="905.508" y="-1066.961" clip-path="url(#SVGID_104_)" fill="#FFFFFF" width="30.93" height="31.808"/>
	</g>
	<g>
		<defs>
			<path id="SVGID_105_" d="M1105.847-1055.338v-2.964h-12.184v2.964H1105.847z M1091.661-1049.608h22.528v1.844h-20.527v3.732
				h20.527v2.034h-22.528V-1049.608z M1089.71-1050.584v8.879v1.659h24.479v3.918h-28.979v-29.857h28.979v14.426h-24.479V-1050.584z
				"/>
		</defs>
		<use xlink:href="#SVGID_105_"  overflow="visible" fill-rule="evenodd" clip-rule="evenodd" fill="#FFFFFF"/>
		<clipPath id="SVGID_106_">
			<use xlink:href="#SVGID_105_"  overflow="visible"/>
		</clipPath>
		<rect x="1084.235" y="-1066.961" clip-path="url(#SVGID_106_)" fill="#FFFFFF" width="30.93" height="31.808"/>
	</g>
	<g>
		<defs>
			<polygon id="SVGID_107_" points="950.359,-1036.128 946.097,-1036.128 946.097,-1065.985 973.539,-1065.985 973.539,-1036.128 
				969.288,-1036.128 969.288,-1059.755 967.337,-1059.755 967.337,-1036.128 965.417,-1036.128 965.417,-1058.082 
				954.22,-1058.082 954.22,-1036.128 952.311,-1036.128 952.311,-1059.755 969.288,-1059.755 969.288,-1061.707 950.359,-1061.707 
				950.359,-1059.951 			"/>
		</defs>
		<use xlink:href="#SVGID_107_"  overflow="visible" fill-rule="evenodd" clip-rule="evenodd" fill="#FFFFFF"/>
		<clipPath id="SVGID_108_">
			<use xlink:href="#SVGID_107_"  overflow="visible"/>
		</clipPath>
		<rect x="945.122" y="-1066.961" clip-path="url(#SVGID_108_)" fill="#FFFFFF" width="29.393" height="31.808"/>
	</g>
	<g>
		<defs>
			<polygon id="SVGID_109_" points="1062.995,-1065.985 1067.257,-1065.985 1067.257,-1036.128 1039.815,-1036.128 
				1039.815,-1065.985 1044.067,-1065.985 1044.067,-1042.358 1046.018,-1042.358 1046.018,-1065.985 1047.938,-1065.985 
				1047.938,-1044.032 1059.135,-1044.032 1059.135,-1065.985 1061.044,-1065.985 1061.044,-1042.358 1044.067,-1042.358 
				1044.067,-1040.407 1062.995,-1040.407 1062.995,-1042.163 			"/>
		</defs>
		<use xlink:href="#SVGID_109_"  overflow="visible" fill-rule="evenodd" clip-rule="evenodd" fill="#FFFFFF"/>
		<clipPath id="SVGID_110_">
			<use xlink:href="#SVGID_109_"  overflow="visible"/>
		</clipPath>
		<rect x="1038.84" y="-1066.961" clip-path="url(#SVGID_110_)" fill="#FFFFFF" width="29.393" height="31.808"/>
	</g>
</g>
</svg>
