<?xml version="1.0" encoding="utf-8"?>
<!-- Generator: Adobe Illustrator 19.0.0, SVG Export Plug-In . SVG Version: 6.00 Build 0)  -->
<svg version="1.1" id="图层_1" xmlns="http://www.w3.org/2000/svg" xmlns:xlink="http://www.w3.org/1999/xlink" x="0px" y="0px"
	 viewBox="0 0 595.28 254" enable-background="new 0 0 595.28 254" xml:space="preserve">
<g display="none">
	<defs>
		<circle id="SVGID_1_" cx="879.234" cy="168.902" r="28.789"/>
	</defs>
	<use xlink:href="#SVGID_1_"  display="inline" overflow="visible" fill-rule="evenodd" clip-rule="evenodd" fill="#F29600"/>
	<clipPath id="SVGID_2_" display="inline">
		<use xlink:href="#SVGID_1_"  overflow="visible"/>
	</clipPath>
</g>
<g>
	<g>
		<defs>
			<path id="SVGID_3_" d="M172.185,50.769c-13.78,11.056-26.619,16.244-38.585,16.503c-12.163,0.263-23.449-6.616-36.896-15.108
				c-0.808-0.843-1.688-1.573-2.624-2.339c-12.246-9.617-30.108-7.269-39.881,5.326c-9.793,12.502-7.753,30.469,4.549,40.122
				c10.259,8.01,24.413,7.692,34.481,0.044c15.849-12.534,28.686-23.371,41.014-23.989c12.7-0.637,17.56,4.043,22.236,9.644
				c2.206,2.643,3.579,7.4,3.254,10.379c-0.325,2.979-0.471,5.734-4.401,13.242c-12.829,24.508-54.812,58.113-73.636,56.908
				c-11.169-1.946-22.96,3.078-29.305,13.461c-8.315,13.539-4.281,31.139,8.998,39.285c11.204,6.801,25.462,4.729,34.621-4.223
				c13.248-10.567,28.015-19.059,39.744-18.729c11.982,0.338,21.407,4.715,30.921,14.93c1.478,1.587,2.789,3.316,4.458,4.797
				c11.935,9.97,29.916,8.175,40.047-4.11c10.091-12.227,8.625-30.218-3.367-40.225c-10.007-8.4-24.147-8.47-34.478-1.152
				c-0.659,0.524-1.373,1.011-1.975,1.569c-13.541,10.378-25.382,21.05-35.473,20.473c-8.285-0.474-12.908-1.044-19.31-7.628
				c-3.266-3.359-5.202-7.578-4.358-11.945c0.25-0.629,0.726-2.223,0.726-2.223c14.45-33.172,52.738-62.413,76.507-64.651
				c1.11,0.009,2.108-0.056,3.143-0.177c8.631-0.895,16.759-5.68,21.639-13.686c8.167-13.297,4.424-30.506-8.377-38.819
				c-0.234-0.152-0.473-0.301-0.712-0.447C194.537,41.509,181.363,43.018,172.185,50.769z"/>
		</defs>
		<clipPath id="SVGID_4_">
			<use xlink:href="#SVGID_3_"  overflow="visible"/>
		</clipPath>
		<g clip-path="url(#SVGID_4_)">
			<defs>
				<rect id="SVGID_5_" x="-4.324" y="-58.381" width="609.268" height="357.238"/>
			</defs>
			<clipPath id="SVGID_6_">
				<use xlink:href="#SVGID_5_"  overflow="visible"/>
			</clipPath>
			
				<rect x="24.077" y="20.516" transform="matrix(-0.8387 -0.5446 0.5446 -0.8387 173.0035 312.948)" clip-path="url(#SVGID_6_)" fill="#FFFFFF" width="217.55" height="220.671"/>
		</g>
	</g>
	<g>
		<defs>
			<path id="SVGID_7_" d="M52.172,58.476c-6.493,10.608-4.297,28.714,5.649,34.526c15.123,10.479,18.85,6.915,33.052,9.058
				c8.758,1.322,13.267,3.741,18.21,6.198c16.693,8.295,51.803,51.811,50.598,70.635c-1.074,11.948,3.495,27.957,13.878,34.302
				c14.622,8.518,32.143,3.642,40.289-9.637c7.144-12.138,4.596-26.344-3.288-34.467c-8.731-8.995-16.641-8.958-19.412-9.121
				c-8.248-0.488-15.201,3.902-27.97-5.063c-28.474-19.991-54.821-57.104-57.058-80.873c0.009-1.11-0.056-2.108-0.177-3.143
				c-0.895-8.631-5.628-17.247-13.634-22.127c-13.319-8.118-31.378-3.8-39.69,9.001"/>
		</defs>
		<clipPath id="SVGID_8_">
			<use xlink:href="#SVGID_7_"  overflow="visible"/>
		</clipPath>
		<g clip-path="url(#SVGID_8_)">
			<defs>
				<rect id="SVGID_9_" x="-4.324" y="-58.381" width="609.268" height="357.238"/>
			</defs>
			<clipPath id="SVGID_10_">
				<use xlink:href="#SVGID_9_"  overflow="visible"/>
			</clipPath>
			
				<rect x="84.705" y="22.241" transform="matrix(-0.5446 0.8387 -0.8387 -0.5446 315.3306 90.8347)" opacity="0.15" clip-path="url(#SVGID_10_)" fill="#FFFFFF" width="96.602" height="217.564"/>
		</g>
	</g>
	<rect x="-4.178" y="-58.501" fill="none" width="609.268" height="357.238"/>
	<g>
		<defs>
			<circle id="SVGID_11_" cx="247.346" cy="72.699" r="28.789"/>
		</defs>
		<clipPath id="SVGID_12_">
			<use xlink:href="#SVGID_11_"  overflow="visible"/>
		</clipPath>
		<g clip-path="url(#SVGID_12_)">
			<defs>
				<rect id="SVGID_13_" x="-0.527" y="-55.988" width="598.522" height="350.937"/>
			</defs>
			<clipPath id="SVGID_14_">
				<use xlink:href="#SVGID_13_"  overflow="visible"/>
			</clipPath>
		</g>
	</g>
	<path fill="#FFFFFF" d="M301.397,111.396l0.138,5.706h-25.137V70.596H295.6v-6.901h-19.202l19.171-19.202l52.837,0v19.202h-20.102
		v6.901h19.502l0.102,46.506l-24.165,0v-5.706H301.397z M294.03,88.998h-4.801v9.901h4.801V88.998z M312.633,63.795h-4.801v6.901
		h4.801V63.795z M312.633,88.998h-4.801v9.901h4.801V88.998z M331.235,98.899v-9.901h-4.801v9.901H331.235z M313.243,121.011
		 M277.217,174.659v-18.703l24.303-1.767v-10.014h-23.103v-18.556h23.103v-7.363h22.203v7.363h22.803v18.556h-22.803v8.542
		l23.403-1.473v18.703L277.217,174.659z"/>
	<g>
		<defs>
			<path id="SVGID_15_" d="M353.334,155.449l18.096-8.826l0.087-0.769l1.745-99.984h40.841v18.652h-37.304l-0.301,10.229h30.385
				v79.422h1.504l12.034-12.034l-2.006,21.764l-9.941,10.877H391.24V95.508h-15.944l-0.602,50.24l12.334-6.318v21.36l-33.694,14.892
				V155.449z M356.991,150.691l1.759-86.169h-4.513V45.87h16.352l-1.729,99.032L356.991,150.691z"/>
		</defs>
		<clipPath id="SVGID_16_">
			<use xlink:href="#SVGID_15_"  overflow="visible"/>
		</clipPath>
		<rect x="350.66" y="43.196" clip-path="url(#SVGID_16_)" fill="#FFFFFF" width="72.435" height="135.161"/>
		
			<circle clip-path="url(#SVGID_16_)" fill-rule="evenodd" clip-rule="evenodd" fill="#FFFFFF" cx="383.272" cy="115.196" r="6.969"/>
	</g>
	<circle fill-rule="evenodd" clip-rule="evenodd" fill="#FFFFFF" cx="383.26" cy="113.14" r="7.734"/>
	<g>
		<defs>
			<path id="SVGID_17_" d="M551.888,124.096v-19.12h-1.722H448.061h-1.476v18.978h-8.556V99.72h9.212
				c-1.215-16.817-2.126-29.43-2.734-37.839l10.528-12.185c7.399-1.117,12.036-2.884,19.84-5.246l4.677,11.196
				c-4.535,1.559-11.904,3.118-21.966,4.818l0.567,6.377h19.982v9.92h-19.273l0.425,6.236h19.273V93.06h-18.423l0.567,6.661h76.81
				l0.425-6.661h-18.14V82.998h18.848l0.425-6.236h-18.99v-9.92h19.699l0.567-7.086h-21.683V48.136h24.425l10.311,10.959
				l-2.567,40.626h9.637v24.375H551.888z M549.428,124.096H546.3v-13.605h-94.1v13.463h-3.155v-16.518h100.382V124.096z"/>
		</defs>
		<clipPath id="SVGID_18_">
			<use xlink:href="#SVGID_17_"  overflow="visible"/>
		</clipPath>
		<rect x="435.569" y="41.991" clip-path="url(#SVGID_18_)" fill="#FFFFFF" width="127.364" height="84.565"/>
	</g>
	<g>
		<defs>
			<path id="SVGID_19_" d="M538.173,126.627v-10.042H458.67v10.042H538.173z M553.384,149.262l-2.797,3.035h-43.025v9.495
				l-13.463,12.471h-16.297l-3.259-11.904c4.677,0.283,9.778,0.425,15.305,0.425c2.834,0,4.393-1.842,4.393-5.385v-5.102h-57.537
				v-3.035H553.384z M555.651,146.802l5.905-6.409h-53.994v-1.701c9.626-3.128,18.435-6.359,26.426-9.605h-24.51
				c-4.444,1.349-9.508,2.897-15.238,4.645v6.661h-57.537v6.409H555.651z"/>
		</defs>
		<use xlink:href="#SVGID_19_"  overflow="visible" fill-rule="evenodd" clip-rule="evenodd" fill="#FFFFFF"/>
		<clipPath id="SVGID_20_">
			<use xlink:href="#SVGID_19_"  overflow="visible"/>
		</clipPath>
		<rect x="434.244" y="114.124" clip-path="url(#SVGID_20_)" fill="#FFFFFF" width="129.773" height="62.599"/>
	</g>
	<g>
		<defs>
			<path id="SVGID_21_" d="M499.292,66.338l-5.915,5.915l5.915,5.915l5.915-5.915L499.292,66.338z M509.729,91.373l-10.508-10.508
				l-10.508,10.508l-6.889-6.889l6.151-6.151l-6.151-6.151l6.151-6.151l-6.151-6.151l6.889-6.889l10.508,10.508l10.508-10.508
				l6.889,6.889l-6.151,6.151l6.151,6.151l-6.151,6.151l6.151,6.151L509.729,91.373z"/>
		</defs>
		<clipPath id="SVGID_22_">
			<use xlink:href="#SVGID_21_"  overflow="visible"/>
		</clipPath>
		<rect x="479.363" y="50.531" clip-path="url(#SVGID_22_)" fill="#FFFFFF" width="39.715" height="43.302"/>
	</g>
	<g>
		<defs>
			<polygon id="SVGID_23_" points="495.355,52.816 493.633,54.538 499.2,60.106 504.767,54.538 503.045,52.816 499.2,56.661 			"/>
		</defs>
		<clipPath id="SVGID_24_">
			<use xlink:href="#SVGID_23_"  overflow="visible"/>
		</clipPath>
		<rect x="491.173" y="50.356" clip-path="url(#SVGID_24_)" fill="#FFFFFF" width="16.055" height="12.21"/>
	</g>
	<g>
		<defs>
			<polygon id="SVGID_25_" points="503.045,91.598 504.767,89.876 499.2,84.309 493.633,89.876 495.355,91.598 499.2,87.753 			"/>
		</defs>
		<clipPath id="SVGID_26_">
			<use xlink:href="#SVGID_25_"  overflow="visible"/>
		</clipPath>
		<rect x="491.173" y="81.848" clip-path="url(#SVGID_26_)" fill="#FFFFFF" width="16.055" height="12.21"/>
	</g>
	<g>
		<defs>
			<path id="SVGID_27_" d="M441.758,216.394l23.749-29.857h5.268l-11.306,15.587l11.526,14.27h-10.208l-6.696-8.123l-6.806,8.123
				H441.758z M444.802,186.538h2.483l6.915,8.891l6.806-8.891h2.008l-9.106,11.447L444.802,186.538z M442.309,186.538l10.352,13.015
				l-13.397,16.842h-2.188l11.965-14.599l-11.855-15.258H442.309z"/>
		</defs>
		<use xlink:href="#SVGID_27_"  overflow="visible" fill-rule="evenodd" clip-rule="evenodd" fill="#FFFFFF"/>
		<clipPath id="SVGID_28_">
			<use xlink:href="#SVGID_27_"  overflow="visible"/>
		</clipPath>
		<rect x="456.102" y="185.562" clip-path="url(#SVGID_28_)" fill="#FFFFFF" width="35.87" height="31.808"/>
	</g>
	<g>
		<defs>
			<path id="SVGID_29_" d="M280.034,216.394h-5.65l17.124-21.954h-13.721v-7.903h25.157L280.034,216.394z M306.437,210.33h-19.289
				l18.257-23.793h2.24l-16.904,21.954h15.697V210.33z M306.437,212.282v4.113h-23.942l3.156-4.113H306.437z"/>
		</defs>
		<use xlink:href="#SVGID_29_"  overflow="visible" fill-rule="evenodd" clip-rule="evenodd" fill="#FFFFFF"/>
		<clipPath id="SVGID_30_">
			<use xlink:href="#SVGID_29_"  overflow="visible"/>
		</clipPath>
		<rect x="273.409" y="185.562" clip-path="url(#SVGID_30_)" fill="#FFFFFF" width="35.211" height="31.808"/>
	</g>
	<g>
		<defs>
			<path id="SVGID_31_" d="M321.911,216.394h-7.542v-36.004h7.542V216.394z M335.962,216.394h-2.053V194.66h-10.046v-1.893h12.099
				V216.394z M337.913,216.394v-25.578h-1.366h-12.684v-4.059h18.388v29.637H337.913z"/>
		</defs>
		<use xlink:href="#SVGID_31_"  overflow="visible" fill-rule="evenodd" clip-rule="evenodd" fill="#FFFFFF"/>
		<clipPath id="SVGID_32_">
			<use xlink:href="#SVGID_31_"  overflow="visible"/>
		</clipPath>
		<rect x="313.394" y="179.415" clip-path="url(#SVGID_32_)" fill="#FFFFFF" width="29.832" height="37.955"/>
	</g>
	<g>
		<defs>
			<path id="SVGID_33_" d="M373.575,197.17v-2.964h-12.184v2.964H373.575z M359.39,202.9h22.528v1.844h-20.527v3.732h20.527v2.034
				H359.39V202.9z M357.438,201.925v8.879v1.659h24.48v3.917h-28.979v-29.857h28.979v14.426h-24.48V201.925z"/>
		</defs>
		<use xlink:href="#SVGID_33_"  overflow="visible" fill-rule="evenodd" clip-rule="evenodd" fill="#FFFFFF"/>
		<clipPath id="SVGID_34_">
			<use xlink:href="#SVGID_33_"  overflow="visible"/>
		</clipPath>
		<rect x="351.963" y="185.547" clip-path="url(#SVGID_34_)" fill="#FFFFFF" width="30.93" height="31.808"/>
	</g>
	<g>
		<defs>
			<path id="SVGID_35_" d="M552.302,197.17v-2.964h-12.184v2.964H552.302z M538.117,202.9h22.528v1.844h-20.527v3.732h20.527v2.034
				h-22.528V202.9z M536.165,201.925v8.879v1.659h24.479v3.917h-28.979v-29.857h28.979v14.426h-24.479V201.925z"/>
		</defs>
		<use xlink:href="#SVGID_35_"  overflow="visible" fill-rule="evenodd" clip-rule="evenodd" fill="#FFFFFF"/>
		<clipPath id="SVGID_36_">
			<use xlink:href="#SVGID_35_"  overflow="visible"/>
		</clipPath>
		<rect x="530.69" y="185.547" clip-path="url(#SVGID_36_)" fill="#FFFFFF" width="30.93" height="31.808"/>
	</g>
	<g>
		<defs>
			<polygon id="SVGID_37_" points="396.815,216.38 392.553,216.38 392.553,186.523 419.995,186.523 419.995,216.38 415.744,216.38 
				415.744,192.753 413.793,192.753 413.793,216.38 411.872,216.38 411.872,194.426 400.676,194.426 400.676,216.38 398.767,216.38 
				398.767,192.753 415.744,192.753 415.744,190.801 396.815,190.801 396.815,192.558 			"/>
		</defs>
		<use xlink:href="#SVGID_37_"  overflow="visible" fill-rule="evenodd" clip-rule="evenodd" fill="#FFFFFF"/>
		<clipPath id="SVGID_38_">
			<use xlink:href="#SVGID_37_"  overflow="visible"/>
		</clipPath>
		<rect x="391.577" y="185.547" clip-path="url(#SVGID_38_)" fill="#FFFFFF" width="29.393" height="31.808"/>
	</g>
	<g>
		<defs>
			<polygon id="SVGID_39_" points="509.451,186.523 513.713,186.523 513.713,216.38 486.271,216.38 486.271,186.523 
				490.522,186.523 490.522,210.15 492.474,210.15 492.474,186.523 494.394,186.523 494.394,208.477 505.59,208.477 505.59,186.523 
				507.5,186.523 507.5,210.15 490.522,210.15 490.522,212.101 509.451,212.101 509.451,210.345 			"/>
		</defs>
		<use xlink:href="#SVGID_39_"  overflow="visible" fill-rule="evenodd" clip-rule="evenodd" fill="#FFFFFF"/>
		<clipPath id="SVGID_40_">
			<use xlink:href="#SVGID_39_"  overflow="visible"/>
		</clipPath>
		<rect x="485.295" y="185.547" clip-path="url(#SVGID_40_)" fill="#FFFFFF" width="29.393" height="31.808"/>
	</g>
</g>
</svg>
