<?xml version="1.0" encoding="utf-8"?>
<!-- Generator: Adobe Illustrator 19.0.0, SVG Export Plug-In . SVG Version: 6.00 Build 0)  -->
<svg version="1.1" id="图层_1" xmlns="http://www.w3.org/2000/svg" xmlns:xlink="http://www.w3.org/1999/xlink" x="0px" y="0px"
	 viewBox="0 0 595.28 234" enable-background="new 0 0 595.28 234" xml:space="preserve">
<g>
	<g>
		<defs>
			<path id="SVGID_1_" d="M169.143,45.647c-13.78,11.056-26.619,16.244-38.585,16.503c-12.163,0.263-23.449-6.616-36.896-15.108
				c-0.808-0.843-1.688-1.573-2.624-2.339c-12.246-9.617-30.108-7.269-39.881,5.326c-9.793,12.502-7.753,30.469,4.549,40.122
				c10.259,8.01,24.413,7.692,34.481,0.044c15.849-12.534,28.686-23.371,41.014-23.989c12.7-0.637,17.56,4.043,22.236,9.644
				c2.206,2.643,3.579,7.4,3.254,10.379c-0.325,2.979-0.471,5.734-4.401,13.242c-12.829,24.508-54.812,58.113-73.636,56.908
				c-11.169-1.946-22.96,3.078-29.305,13.461c-8.315,13.539-4.281,31.139,8.998,39.285c11.204,6.801,25.462,4.729,34.621-4.223
				c13.248-10.567,28.015-19.059,39.744-18.729c11.982,0.338,21.407,4.715,30.921,14.93c1.478,1.587,2.789,3.316,4.458,4.797
				c11.935,9.97,29.916,8.175,40.047-4.11c10.091-12.227,8.625-30.218-3.367-40.225c-10.007-8.4-24.147-8.47-34.478-1.152
				c-0.659,0.524-1.373,1.011-1.975,1.569c-13.541,10.378-25.382,21.05-35.473,20.473c-8.285-0.474-12.908-1.044-19.31-7.628
				c-3.266-3.359-5.202-7.578-4.358-11.945c0.25-0.629,0.726-2.223,0.726-2.223c14.45-33.172,52.738-62.413,76.507-64.651
				c1.11,0.009,2.108-0.056,3.143-0.177c8.631-0.895,16.759-5.68,21.639-13.686c8.167-13.297,4.424-30.506-8.377-38.819
				c-0.234-0.152-0.473-0.301-0.712-0.447C191.495,36.387,178.321,37.896,169.143,45.647z"/>
		</defs>
		<use xlink:href="#SVGID_1_"  overflow="visible" fill-rule="evenodd" clip-rule="evenodd" fill="#4DB6AC"/>
		<clipPath id="SVGID_2_">
			<use xlink:href="#SVGID_1_"  overflow="visible"/>
		</clipPath>
		<g clip-path="url(#SVGID_2_)">
			<defs>
				<rect id="SVGID_3_" x="-7.366" y="-63.503" width="609.268" height="357.238"/>
			</defs>
			<use xlink:href="#SVGID_3_"  overflow="visible" fill="#4DB6AC"/>
			<clipPath id="SVGID_4_">
				<use xlink:href="#SVGID_3_"  overflow="visible"/>
			</clipPath>
			
				<rect x="21.034" y="15.394" transform="matrix(-0.8387 -0.5446 0.5446 -0.8387 170.1992 301.8739)" clip-path="url(#SVGID_4_)" fill="#4DB6AC" width="217.55" height="220.671"/>
		</g>
	</g>
	<g opacity="0.15">
		<defs>
			<path id="SVGID_5_" opacity="0.15" d="M49.13,53.355c-6.493,10.608-4.297,28.714,5.649,34.526
				c15.123,10.479,18.85,6.915,33.052,9.058c8.758,1.322,13.267,3.741,18.21,6.198c16.693,8.295,51.803,51.811,50.598,70.635
				c-1.074,11.948,3.495,27.957,13.878,34.302c14.622,8.518,32.143,3.642,40.289-9.637c7.144-12.138,4.596-26.344-3.288-34.467
				c-8.731-8.995-16.641-8.958-19.412-9.121c-8.248-0.488-15.201,3.902-27.97-5.063c-28.474-19.991-54.821-57.104-57.058-80.873
				c0.009-1.11-0.056-2.108-0.177-3.143c-0.895-8.631-5.628-17.247-13.634-22.127c-13.319-8.118-31.378-3.8-39.69,9.001"/>
		</defs>
		<use xlink:href="#SVGID_5_"  overflow="visible" fill-rule="evenodd" clip-rule="evenodd" fill="#27AC9E"/>
		<clipPath id="SVGID_6_">
			<use xlink:href="#SVGID_5_"  overflow="visible"/>
		</clipPath>
		
			<rect x="81.662" y="17.119" transform="matrix(-0.5446 0.8387 -0.8387 -0.5446 306.3358 85.4749)" opacity="0.15" clip-path="url(#SVGID_6_)" fill="#27AC9E" width="96.602" height="217.564"/>
		<rect x="-7.366" y="-63.503" clip-path="url(#SVGID_6_)" fill="#27AC9E" width="609.268" height="357.238"/>
	</g>
</g>
<g>
	<defs>
		<circle id="SVGID_7_" cx="244.304" cy="67.577" r="28.789"/>
	</defs>
	<clipPath id="SVGID_8_">
		<use xlink:href="#SVGID_7_"  overflow="visible"/>
	</clipPath>
	<g clip-path="url(#SVGID_8_)">
		<defs>
			<rect id="SVGID_9_" x="-3.569" y="-61.11" width="598.522" height="350.937"/>
		</defs>
		<clipPath id="SVGID_10_">
			<use xlink:href="#SVGID_9_"  overflow="visible"/>
		</clipPath>
	</g>
</g>
<g>
	<path fill="#4DB6AC" d="M298.355,106.274l0.138,5.706h-25.137V65.475h19.202v-6.901h-19.202l19.171-19.202l52.837,0v19.202h-20.102
		v6.901h19.502l0.102,46.506l-24.165,0v-5.706H298.355z M290.988,83.877h-4.801v9.901h4.801V83.877z M309.59,58.673h-4.801v6.901
		h4.801V58.673z M309.59,83.877h-4.801v9.901h4.801V83.877z M328.193,93.778v-9.901h-4.801v9.901H328.193z M310.201,115.889
		 M274.175,169.537v-18.703l24.303-1.767v-10.014h-23.103v-18.556h23.103v-7.363h22.203v7.363h22.803v18.556h-22.803v8.542
		l23.403-1.473v18.703L274.175,169.537z"/>
	<g>
		<defs>
			<path id="SVGID_11_" d="M350.292,150.328l18.096-8.826l0.087-0.769l1.745-99.984h40.841V59.4h-37.304l-0.301,10.229h30.385
				v79.422h1.504l12.034-12.034l-2.006,21.764l-9.941,10.877h-17.234V90.387h-15.944l-0.602,50.24l12.334-6.318v21.36
				l-33.694,14.892V150.328z M353.948,145.569l1.759-86.169h-4.513V40.748h16.352l-1.729,99.032L353.948,145.569z"/>
		</defs>
		<use xlink:href="#SVGID_11_"  overflow="visible" fill-rule="evenodd" clip-rule="evenodd" fill="#4DB6AC"/>
		<clipPath id="SVGID_12_">
			<use xlink:href="#SVGID_11_"  overflow="visible"/>
		</clipPath>
		<rect x="347.618" y="38.074" clip-path="url(#SVGID_12_)" fill="#4DB6AC" width="72.435" height="135.161"/>
		
			<circle clip-path="url(#SVGID_12_)" fill-rule="evenodd" clip-rule="evenodd" fill="#4DB6AC" cx="380.23" cy="110.074" r="6.969"/>
	</g>
	<circle fill-rule="evenodd" clip-rule="evenodd" fill="#F8E71B" cx="380.217" cy="108.019" r="7.734"/>
	<g>
		<defs>
			<path id="SVGID_13_" d="M548.846,118.974v-19.12h-1.722H445.019h-1.476v18.978h-8.556V94.599h9.212
				c-1.215-16.817-2.126-29.43-2.734-37.839l10.528-12.185c7.399-1.117,12.036-2.884,19.84-5.246l4.677,11.196
				c-4.535,1.559-11.904,3.118-21.966,4.818l0.567,6.377h19.982v9.92h-19.273l0.425,6.236h19.273v10.062h-18.423l0.567,6.661h76.81
				l0.425-6.661h-18.14V77.876h18.848l0.425-6.236h-18.99v-9.92h19.699l0.567-7.086h-21.683V43.014h24.425l10.311,10.959
				l-2.567,40.626h9.637v24.375H548.846z M546.386,118.974h-3.128v-13.605h-94.1v13.463h-3.155v-16.518h100.382V118.974z"/>
		</defs>
		<clipPath id="SVGID_14_">
			<use xlink:href="#SVGID_13_"  overflow="visible"/>
		</clipPath>
		<rect x="432.526" y="36.869" clip-path="url(#SVGID_14_)" fill="#4DB6AC" width="127.364" height="84.565"/>
	</g>
	<g>
		<defs>
			<path id="SVGID_15_" d="M535.131,121.505v-10.042h-79.503v10.042H535.131z M550.342,144.14l-2.797,3.035H504.52v9.495
				l-13.463,12.471H474.76l-3.259-11.904c4.677,0.283,9.778,0.425,15.305,0.425c2.834,0,4.393-1.842,4.393-5.385v-5.102h-57.537
				v-3.035H550.342z M552.609,141.68l5.905-6.409H504.52v-1.701c9.626-3.128,18.435-6.359,26.426-9.605h-24.51
				c-4.444,1.349-9.508,2.897-15.238,4.645v6.661h-57.537v6.409H552.609z"/>
		</defs>
		<use xlink:href="#SVGID_15_"  overflow="visible" fill-rule="evenodd" clip-rule="evenodd" fill="#4DB6AC"/>
		<clipPath id="SVGID_16_">
			<use xlink:href="#SVGID_15_"  overflow="visible"/>
		</clipPath>
		<rect x="431.202" y="109.003" clip-path="url(#SVGID_16_)" fill="#4DB6AC" width="129.773" height="62.599"/>
	</g>
	<g>
		<defs>
			<path id="SVGID_17_" d="M496.25,61.216l-5.915,5.915l5.915,5.915l5.915-5.915L496.25,61.216z M506.687,86.251l-10.508-10.508
				L485.67,86.251l-6.889-6.889l6.151-6.151l-6.151-6.151l6.151-6.151l-6.151-6.151l6.889-6.889l10.508,10.508l10.508-10.508
				l6.889,6.889l-6.151,6.151l6.151,6.151l-6.151,6.151l6.151,6.151L506.687,86.251z"/>
		</defs>
		<clipPath id="SVGID_18_">
			<use xlink:href="#SVGID_17_"  overflow="visible"/>
		</clipPath>
		<rect x="476.321" y="45.409" clip-path="url(#SVGID_18_)" fill="#F8E71B" width="39.715" height="43.302"/>
	</g>
	<g>
		<defs>
			<polygon id="SVGID_19_" points="492.313,47.694 490.591,49.417 496.158,54.984 501.725,49.417 500.003,47.694 496.158,51.539 			
				"/>
		</defs>
		<use xlink:href="#SVGID_19_"  overflow="visible" fill-rule="evenodd" clip-rule="evenodd" fill="#F8E71B"/>
		<clipPath id="SVGID_20_">
			<use xlink:href="#SVGID_19_"  overflow="visible"/>
		</clipPath>
		<rect x="488.13" y="45.234" clip-path="url(#SVGID_20_)" fill="#F8E71B" width="16.055" height="12.21"/>
	</g>
	<g>
		<defs>
			<polygon id="SVGID_21_" points="500.003,86.476 501.725,84.754 496.158,79.187 490.591,84.754 492.313,86.476 496.158,82.631 			
				"/>
		</defs>
		<use xlink:href="#SVGID_21_"  overflow="visible" fill-rule="evenodd" clip-rule="evenodd" fill="#F8E71B"/>
		<clipPath id="SVGID_22_">
			<use xlink:href="#SVGID_21_"  overflow="visible"/>
		</clipPath>
		<rect x="488.13" y="76.727" clip-path="url(#SVGID_22_)" fill="#F8E71B" width="16.055" height="12.21"/>
	</g>
	<g>
		<defs>
			<path id="SVGID_23_" d="M438.715,211.273l23.749-29.857h5.268l-11.306,15.587l11.526,14.27h-10.208l-6.696-8.123l-6.806,8.123
				H438.715z M441.76,181.416h2.483l6.915,8.891l6.806-8.891h2.008l-9.106,11.447L441.76,181.416z M439.266,181.416l10.352,13.015
				l-13.397,16.842h-2.188l11.965-14.599l-11.855-15.258H439.266z"/>
		</defs>
		<use xlink:href="#SVGID_23_"  overflow="visible" fill-rule="evenodd" clip-rule="evenodd" fill="#4DB6AC"/>
		<clipPath id="SVGID_24_">
			<use xlink:href="#SVGID_23_"  overflow="visible"/>
		</clipPath>
		<rect x="453.06" y="180.44" clip-path="url(#SVGID_24_)" fill="#4DB6AC" width="35.87" height="31.808"/>
	</g>
	<g>
		<defs>
			<path id="SVGID_25_" d="M276.992,211.273h-5.65l17.124-21.954h-13.721v-7.903h25.157L276.992,211.273z M303.394,205.209h-19.289
				l18.257-23.793h2.24l-16.904,21.954h15.697V205.209z M303.394,207.16v4.113h-23.942l3.156-4.113H303.394z"/>
		</defs>
		<use xlink:href="#SVGID_25_"  overflow="visible" fill-rule="evenodd" clip-rule="evenodd" fill="#4DB6AC"/>
		<clipPath id="SVGID_26_">
			<use xlink:href="#SVGID_25_"  overflow="visible"/>
		</clipPath>
		<rect x="270.366" y="180.44" clip-path="url(#SVGID_26_)" fill="#4DB6AC" width="35.211" height="31.808"/>
	</g>
	<g>
		<defs>
			<path id="SVGID_27_" d="M318.869,211.273h-7.542v-36.004h7.542V211.273z M332.919,211.273h-2.053v-21.734H320.82v-1.893h12.099
				V211.273z M334.871,211.273v-25.578h-1.366H320.82v-4.059h18.388v29.637H334.871z"/>
		</defs>
		<use xlink:href="#SVGID_27_"  overflow="visible" fill-rule="evenodd" clip-rule="evenodd" fill="#4DB6AC"/>
		<clipPath id="SVGID_28_">
			<use xlink:href="#SVGID_27_"  overflow="visible"/>
		</clipPath>
		<rect x="310.352" y="174.293" clip-path="url(#SVGID_28_)" fill="#4DB6AC" width="29.832" height="37.955"/>
	</g>
	<g>
		<defs>
			<path id="SVGID_29_" d="M370.533,192.049v-2.964h-12.184v2.964H370.533z M356.347,197.779h22.528v1.844h-20.527v3.732h20.527
				v2.034h-22.528V197.779z M354.396,196.803v8.879v1.659h24.48v3.917h-28.979v-29.857h28.979v14.426h-24.48V196.803z"/>
		</defs>
		<use xlink:href="#SVGID_29_"  overflow="visible" fill-rule="evenodd" clip-rule="evenodd" fill="#4DB6AC"/>
		<clipPath id="SVGID_30_">
			<use xlink:href="#SVGID_29_"  overflow="visible"/>
		</clipPath>
		<rect x="348.921" y="180.426" clip-path="url(#SVGID_30_)" fill="#4DB6AC" width="30.93" height="31.808"/>
	</g>
	<g>
		<defs>
			<path id="SVGID_31_" d="M549.26,192.049v-2.964h-12.184v2.964H549.26z M535.074,197.779h22.528v1.844h-20.527v3.732h20.527v2.034
				h-22.528V197.779z M533.123,196.803v8.879v1.659h24.479v3.917h-28.979v-29.857h28.979v14.426h-24.479V196.803z"/>
		</defs>
		<use xlink:href="#SVGID_31_"  overflow="visible" fill-rule="evenodd" clip-rule="evenodd" fill="#4DB6AC"/>
		<clipPath id="SVGID_32_">
			<use xlink:href="#SVGID_31_"  overflow="visible"/>
		</clipPath>
		<rect x="527.648" y="180.426" clip-path="url(#SVGID_32_)" fill="#4DB6AC" width="30.93" height="31.808"/>
	</g>
	<g>
		<defs>
			<polygon id="SVGID_33_" points="393.773,211.258 389.511,211.258 389.511,181.401 416.953,181.401 416.953,211.258 
				412.702,211.258 412.702,187.631 410.75,187.631 410.75,211.258 408.83,211.258 408.83,189.305 397.634,189.305 397.634,211.258 
				395.724,211.258 395.724,187.631 412.702,187.631 412.702,185.68 393.773,185.68 393.773,187.436 			"/>
		</defs>
		<use xlink:href="#SVGID_33_"  overflow="visible" fill-rule="evenodd" clip-rule="evenodd" fill="#4DB6AC"/>
		<clipPath id="SVGID_34_">
			<use xlink:href="#SVGID_33_"  overflow="visible"/>
		</clipPath>
		<rect x="388.535" y="180.426" clip-path="url(#SVGID_34_)" fill="#4DB6AC" width="29.393" height="31.808"/>
	</g>
	<g>
		<defs>
			<polygon id="SVGID_35_" points="506.409,181.401 510.671,181.401 510.671,211.258 483.229,211.258 483.229,181.401 
				487.48,181.401 487.48,205.028 489.431,205.028 489.431,181.401 491.352,181.401 491.352,203.355 502.548,203.355 
				502.548,181.401 504.457,181.401 504.457,205.028 487.48,205.028 487.48,206.98 506.409,206.98 506.409,205.223 			"/>
		</defs>
		<use xlink:href="#SVGID_35_"  overflow="visible" fill-rule="evenodd" clip-rule="evenodd" fill="#4DB6AC"/>
		<clipPath id="SVGID_36_">
			<use xlink:href="#SVGID_35_"  overflow="visible"/>
		</clipPath>
		<rect x="482.253" y="180.426" clip-path="url(#SVGID_36_)" fill="#4DB6AC" width="29.393" height="31.808"/>
	</g>
</g>
<g display="none">
	<defs>
		<circle id="SVGID_37_" cx="879.234" cy="188.902" r="28.789"/>
	</defs>
	<use xlink:href="#SVGID_37_"  display="inline" overflow="visible" fill-rule="evenodd" clip-rule="evenodd" fill="#F29600"/>
	<clipPath id="SVGID_38_" display="inline">
		<use xlink:href="#SVGID_37_"  overflow="visible"/>
	</clipPath>
</g>
</svg>
